<?xml version="1.0" standalone="no"?><svg xmlns="http://www.w3.org/2000/svg" viewBox="0 0 1440 320"><path fill="#0099ff" fill-opacity="1" d="M0,288L40,277.3C80,267,160,245,240,218.7C320,192,400,160,480,160C560,160,640,192,720,213.3C800,235,880,245,960,229.3C1040,213,1120,171,1200,133.3C1280,96,1360,64,1400,48L1440,32L1440,320L1400,320C1360,320,1280,320,1200,320C1120,320,1040,320,960,320C880,320,800,320,720,320C640,320,560,320,480,320C400,320,320,320,240,320C160,320,80,320,40,320L0,320Z"></path></svg>